<?xml version="1.0" encoding="UTF-8" standalone="no"?>
<!DOCTYPE svg PUBLIC "-//W3C//DTD SVG 1.1//EN" "http://www.w3.org/Graphics/SVG/1.1/DTD/svg11.dtd">
<svg width="100%" height="100%" viewBox="0 0 2500 2500" version="1.1" xmlns="http://www.w3.org/2000/svg" xmlns:xlink="http://www.w3.org/1999/xlink" xml:space="preserve" xmlns:serif="http://www.serif.com/" style="fill-rule:evenodd;clip-rule:evenodd;stroke-linejoin:round;stroke-miterlimit:2;">
    <g id="Page-1">
        <g id="prettier-icon-dark">
            <g id="Icon-_x28_Dark_x29_">
                <g id="Group">
                    <path id="Rectangle" d="M1845.24,476.19L1964.29,476.19C1997.62,476.19 2023.81,502.381 2023.81,535.714C2023.81,569.048 1997.62,595.238 1964.29,595.238L1845.24,595.238C1811.9,595.238 1785.71,569.048 1785.71,535.714C1785.71,502.381 1811.9,476.19 1845.24,476.19Z" style="fill:rgb(86,179,180);fill-rule:nonzero;"/>
                    <path id="Rectangle_1_" d="M59.524,2380.95L654.762,2380.95C688.095,2380.95 714.286,2407.14 714.286,2440.48C714.286,2473.81 688.095,2500 654.762,2500L59.524,2500C26.19,2500 0,2473.81 0,2440.48C0,2407.14 26.19,2380.95 59.524,2380.95Z" style="fill:rgb(234,94,94);fill-rule:nonzero;"/>
                    <path id="Rectangle_2_" d="M1488.1,1428.57L1845.24,1428.57C1878.57,1428.57 1904.76,1454.76 1904.76,1488.1C1904.76,1521.43 1878.57,1547.62 1845.24,1547.62L1488.1,1547.62C1454.76,1547.62 1428.57,1521.43 1428.57,1488.1C1428.57,1454.76 1454.76,1428.57 1488.1,1428.57Z" style="fill:rgb(191,133,191);fill-rule:nonzero;"/>
                    <path id="Rectangle_3_" d="M773.81,1428.57L1250,1428.57C1283.33,1428.57 1309.52,1454.76 1309.52,1488.1C1309.52,1521.43 1283.33,1547.62 1250,1547.62L773.81,1547.62C740.476,1547.62 714.286,1521.43 714.286,1488.1C714.286,1454.76 740.476,1428.57 773.81,1428.57Z" style="fill:rgb(234,94,94);fill-rule:nonzero;"/>
                    <path id="Rectangle_4_" d="M59.524,1428.57L535.714,1428.57C569.048,1428.57 595.238,1454.76 595.238,1488.1C595.238,1521.43 569.048,1547.62 535.714,1547.62L59.524,1547.62C26.19,1547.62 0,1521.43 0,1488.1C0,1454.76 26.19,1428.57 59.524,1428.57Z" style="fill:rgb(86,179,180);fill-rule:nonzero;"/>
                    <path id="Rectangle_5_" d="M59.524,1904.76L654.762,1904.76C688.095,1904.76 714.286,1930.95 714.286,1964.29C714.286,1997.62 688.095,2023.81 654.762,2023.81L59.524,2023.81C26.19,2023.81 0,1997.62 0,1964.29C0,1930.95 26.19,1904.76 59.524,1904.76Z" style="fill:rgb(191,133,191);fill-rule:nonzero;"/>
                    <path id="Rectangle_6_" d="M59.524,952.381L654.762,952.381C688.095,952.381 714.286,978.571 714.286,1011.9C714.286,1045.24 688.095,1071.43 654.762,1071.43L59.524,1071.43C26.19,1071.43 0,1045.24 0,1011.9C0,978.571 26.19,952.381 59.524,952.381Z" style="fill:rgb(191,133,191);fill-rule:nonzero;"/>
                    <path id="Rectangle_7_" d="M654.762,238.095L1845.24,238.095C1878.57,238.095 1904.76,264.286 1904.76,297.619C1904.76,330.952 1878.57,357.143 1845.24,357.143L654.762,357.143C621.429,357.143 595.238,330.952 595.238,297.619C595.238,264.286 621.429,238.095 654.762,238.095Z" style="fill:rgb(247,186,62);fill-rule:nonzero;"/>
                    <path id="Rectangle_8_" d="M59.524,238.095L416.667,238.095C450,238.095 476.19,264.286 476.19,297.619C476.19,330.952 450,357.143 416.667,357.143L59.524,357.143C26.19,357.143 0,330.952 0,297.619C0,264.286 26.19,238.095 59.524,238.095Z" style="fill:rgb(234,94,94);fill-rule:nonzero;"/>
                    <path id="Rectangle_9_" d="M535.714,2142.86L654.762,2142.86C688.095,2142.86 714.286,2169.05 714.286,2202.38C714.286,2235.71 688.095,2261.91 654.762,2261.91L535.714,2261.91C502.381,2261.91 476.19,2235.71 476.19,2202.38C476.19,2169.05 502.381,2142.86 535.714,2142.86Z" style="fill:rgb(247,186,62);fill-rule:nonzero;"/>
                    <path id="Rectangle_10_" d="M535.714,714.286L654.762,714.286C688.095,714.286 714.286,740.476 714.286,773.81C714.286,807.143 688.095,833.333 654.762,833.333L535.714,833.333C502.381,833.333 476.19,807.143 476.19,773.81C476.19,740.476 502.381,714.286 535.714,714.286Z" style="fill:rgb(86,179,180);fill-rule:nonzero;"/>
                    <path id="Rectangle_11_" d="M59.524,2142.86L297.619,2142.86C330.952,2142.86 357.143,2169.05 357.143,2202.38C357.143,2235.71 330.952,2261.91 297.619,2261.91L59.524,2261.91C26.19,2261.91 0,2235.71 0,2202.38C0,2169.05 26.19,2142.86 59.524,2142.86Z" style="fill:rgb(86,179,180);fill-rule:nonzero;"/>
                    <path id="Rectangle_12_" d="M59.524,714.286L297.619,714.286C330.952,714.286 357.143,740.476 357.143,773.81C357.143,807.143 330.952,833.333 297.619,833.333L59.524,833.333C26.19,833.333 0,807.143 0,773.81C0,740.476 26.19,714.286 59.524,714.286Z" style="fill:rgb(247,186,62);fill-rule:nonzero;"/>
                    <path id="Rectangle_16_" d="M1011.9,1190.48L1964.29,1190.48C1997.62,1190.48 2023.81,1216.67 2023.81,1250C2023.81,1283.33 1997.62,1309.52 1964.29,1309.52L1011.9,1309.52C978.571,1309.52 952.381,1283.33 952.381,1250C952.381,1216.67 978.571,1190.48 1011.9,1190.48Z" style="fill:rgb(86,179,180);fill-rule:nonzero;"/>
                    <path id="Rectangle_17_" d="M416.667,1190.48L773.81,1190.48C807.143,1190.48 833.333,1216.67 833.333,1250C833.333,1283.33 807.143,1309.52 773.81,1309.52L416.667,1309.52C383.333,1309.52 357.143,1283.33 357.143,1250C357.143,1216.67 383.333,1190.48 416.667,1190.48Z" style="fill:rgb(247,186,62);fill-rule:nonzero;"/>
                    <path id="Rectangle_18_" d="M59.524,1190.48L178.571,1190.48C211.905,1190.48 238.095,1216.67 238.095,1250C238.095,1283.33 211.905,1309.52 178.571,1309.52L59.524,1309.52C26.19,1309.52 0,1283.33 0,1250C0,1216.67 26.19,1190.48 59.524,1190.48Z" style="fill:rgb(234,94,94);fill-rule:nonzero;"/>
                    <path id="Rectangle_19_" d="M1130.95,476.19L1607.14,476.19C1640.48,476.19 1666.67,502.381 1666.67,535.714C1666.67,569.048 1640.48,595.238 1607.14,595.238L1130.95,595.238C1097.62,595.238 1071.43,569.048 1071.43,535.714C1071.43,502.381 1097.62,476.19 1130.95,476.19Z" style="fill:rgb(191,133,191);fill-rule:nonzero;"/>
                    <path id="Rectangle_20_" d="M59.524,476.19L892.857,476.19C926.19,476.19 952.381,502.381 952.381,535.714C952.381,569.048 926.19,595.238 892.857,595.238L59.524,595.238C26.19,595.238 0,569.048 0,535.714C0,502.381 26.19,476.19 59.524,476.19Z" style="fill:rgb(86,179,180);fill-rule:nonzero;"/>
                    <path id="Rectangle_21_" d="M416.667,1666.67L1488.1,1666.67C1521.43,1666.67 1547.62,1692.86 1547.62,1726.19C1547.62,1759.52 1521.43,1785.71 1488.1,1785.71L416.667,1785.71C383.333,1785.71 357.143,1759.52 357.143,1726.19C357.143,1692.86 383.333,1666.67 416.667,1666.67Z" style="fill:rgb(247,186,62);fill-rule:nonzero;"/>
                    <path id="Rectangle_22_" d="M59.524,1666.67L178.571,1666.67C211.905,1666.67 238.095,1692.86 238.095,1726.19C238.095,1759.52 211.905,1785.71 178.571,1785.71L59.524,1785.71C26.19,1785.71 0,1759.52 0,1726.19C0,1692.86 26.19,1666.67 59.524,1666.67Z" style="fill:rgb(191,133,191);fill-rule:nonzero;"/>
                    <path id="Rectangle_23_" d="M1488.1,714.286L2083.33,714.286C2116.67,714.286 2142.86,740.476 2142.86,773.81C2142.86,807.143 2116.67,833.333 2083.33,833.333L1488.1,833.333C1454.76,833.333 1428.57,807.143 1428.57,773.81C1428.57,740.476 1454.76,714.286 1488.1,714.286Z" style="fill:rgb(234,94,94);fill-rule:nonzero;"/>
                    <path id="Rectangle_24_" d="M1488.1,952.381L2083.33,952.381C2116.67,952.381 2142.86,978.571 2142.86,1011.9C2142.86,1045.24 2116.67,1071.43 2083.33,1071.43L1488.1,1071.43C1454.76,1071.43 1428.57,1045.24 1428.57,1011.9C1428.57,978.571 1454.76,952.381 1488.1,952.381Z" style="fill:rgb(247,186,62);fill-rule:nonzero;"/>
                    <path id="Rectangle_25_" d="M59.524,0L1488.1,0C1521.43,0 1547.62,26.19 1547.62,59.524C1547.62,92.857 1521.43,119.048 1488.1,119.048L59.524,119.048C26.19,119.048 0,92.857 0,59.524C0,26.19 26.19,0 59.524,0Z" style="fill:rgb(86,179,180);fill-rule:nonzero;"/>
                </g>
            </g>
        </g>
    </g>
</svg>
